<svg xmlns="http://www.w3.org/2000/svg" viewBox="0 0 15.74 15.6"><defs><style>.cls-1{fill:#191919;}</style></defs><title>Asset 2</title><g id="Layer_2" data-name="Layer 2"><g id="Layer_1-2" data-name="Layer 1"><path class="cls-1" d="M15.74,8.78l-1-.8V6.61h-.58v.88L11.93,5.58h0l0,0-.38-.32-.42.35h0l-1.23,1V3.67h0L5.52,0V0H4.93V9.12H2.17v4.63H5.52V9.61H8.1V15.1H.59V7.29H0V15.6H8.69V9.12H5.52V.72L9.28,3.88V7.31h.59l1.64-1.38,2.7,2.26V15.1H9.87v-6H9.28v6.47h5.51V8.68l.54.45ZM4.93,13.26H2.76V9.61H4.93Z"/></g></g></svg>